<svg xmlns="http://www.w3.org/2000/svg" viewBox="0 0 100 100"><path d="M88.76 97.425c-16.484 5.887-24.276-3.778-34.84-8.418-10.564-4.639-38.229-11.634-40.706-28.625-2.477-16.99 7.674-31.89 24.071-42.054C53.682 8.165 63.809 6.536 77.291 13.581c13.481 7.045 15.691 27.29 18.903 41.624 3.212 14.334 9.05 36.332-7.434 42.22z" fill="#CB042F"/><clipPath id="b"><path d="M88.76 97.425c-16.484 5.887-24.276-3.778-34.84-8.418-10.564-4.639-38.229-11.634-40.706-28.625-2.477-16.99 7.674-31.89 24.071-42.054C53.682 8.165 63.809 6.536 77.291 13.581c13.481 7.045 15.691 27.29 18.903 41.624 3.212 14.334 9.05 36.332-7.434 42.22z" fill="#CB042F"/></clipPath><g clip-path="url(#b)"><path d="M11.193 44.837C21.78 58.681 38.827 70.462 53.78 70.13c13.314-.297 22.502 10.17 38.389 32.435-59.454-5.564-86.445-24.806-80.976-57.728z" fill="#9D0526"/></g><g fill="#1AB352"><path d="M.125 4.264L2.338.729c11.938 4.552 20.727 10.083 26.36 16.583 17.012 4.457 6.782 13.058-3.712 7.764-.515-7.356-8.8-14.291-24.861-20.812z"/><path d="M31.123 22.871c-.452 8.191 6.407 10.996 20.576 8.41 1.392-9.907-5.466-12.708-20.576-8.41z"/><path d="M52.434 19.218c-6.048 1.62-16.179 2.686-24.383 4.84C42.765 6.15 55.644-.034 66.683 5.498c-5.599 5.481-8.341 10.608-14.249 13.72z"/><path d="M29.92 22.637c-1.167 9.308-13.642 30.672-24.635 33.4-3.221-13.818 4.992-24.949 24.635-33.4z"/><path d="M27.976 22.864c-9.81 19.538-9.181 29.587 1.872 30.126 8.701-14.764 6.76-27.46-1.872-30.126z"/></g></svg>